CommonSerif-Bold.ufo
<glyph name="numbersign" format="2">
  <advance width="514"/>
  <unicode hex="0023"/>
  <outline>
    <contour>
      <point x="100" y="14" type="line"/>
      <point x="118.15" y="9"/>
      <point x="136.85" y="9"/>
      <point x="155" y="14" type="curve"/>
      <point x="249" y="599" type="line"/>
      <point x="230.52" y="604"/>
      <point x="211.48" y="604"/>
      <point x="193" y="599" type="curve"/>
    </contour>
    <contour>
      <point x="252" y="14" type="line"/>
      <point x="269.49" y="9"/>
      <point x="287.51" y="9"/>
      <point x="305" y="14" type="curve"/>
      <point x="396" y="599" type="line"/>
      <point x="378.84" y="604"/>
      <point x="361.16" y="604"/>
      <point x="344" y="599" type="curve"/>
    </contour>
    <contour>
      <point x="199" y="370" type="line"/>
      <point x="199" y="418" type="line"/>
      <point x="72" y="418" type="line" smooth="yes"/>
      <point x="63" y="418"/>
      <point x="47" y="408"/>
      <point x="47" y="387" type="curve" smooth="yes"/>
      <point x="47" y="379"/>
      <point x="50" y="370"/>
      <point x="57" y="370" type="curve" smooth="yes"/>
    </contour>
    <contour>
      <point x="187.112" y="369.532" type="line"/>
      <point x="340.759" y="369.532" type="line"/>
      <point x="340.759" y="418" type="line"/>
      <point x="187.112" y="418" type="line"/>
    </contour>
    <contour>
      <point x="318" y="370" type="line"/>
      <point x="453" y="370" type="line" smooth="yes"/>
      <point x="464" y="370"/>
      <point x="478" y="382"/>
      <point x="478" y="399" type="curve" smooth="yes"/>
      <point x="478" y="408"/>
      <point x="475" y="418"/>
      <point x="468" y="418" type="curve" smooth="yes"/>
      <point x="318" y="418" type="line"/>
    </contour>
    <contour>
      <point x="181" y="196.576" type="line"/>
      <point x="181" y="244.576" type="line"/>
      <point x="54" y="244.576" type="line" smooth="yes"/>
      <point x="45" y="244.576"/>
      <point x="29" y="234.576"/>
      <point x="29" y="213.576" type="curve" smooth="yes"/>
      <point x="29" y="205.576"/>
      <point x="32" y="196.576"/>
      <point x="39" y="196.576" type="curve" smooth="yes"/>
    </contour>
    <contour>
      <point x="161.149" y="197.275" type="line"/>
      <point x="317.381" y="197.275" type="line"/>
      <point x="317.381" y="245.181" type="line"/>
      <point x="161.149" y="245.181" type="line"/>
    </contour>
    <contour>
      <point x="297.42" y="196.817" type="line"/>
      <point x="432.42" y="196.817" type="line" smooth="yes"/>
      <point x="443.42" y="196.817"/>
      <point x="457.42" y="208.817"/>
      <point x="457.42" y="225.817" type="curve" smooth="yes"/>
      <point x="457.42" y="234.817"/>
      <point x="454.42" y="244.817"/>
      <point x="447.42" y="244.817" type="curve" smooth="yes"/>
      <point x="297.42" y="244.817" type="line"/>
    </contour>
  </outline>
</glyph>
<glyph name="less" format="2">
  <advance width="512"/>
  <unicode hex="003C"/>
  <outline>
    <contour>
      <point x="153" y="240" type="line"/>
      <point x="471" y="356" type="line"/>
      <point x="483" y="376.46"/>
      <point x="483" y="397.54"/>
      <point x="471" y="418" type="curve"/>
      <point x="42" y="262" type="line"/>
      <point x="33.7466" y="247.452"/>
      <point x="33.7466" y="232.492"/>
      <point x="42" y="218" type="curve"/>
      <point x="471" y="62" type="line"/>
      <point x="483" y="82.46"/>
      <point x="483" y="103.54"/>
      <point x="471" y="124" type="curve"/>
    </contour>
  </outline>
</glyph>
<glyph name="h" format="2">
  <advance width="609"/>
  <unicode hex="0068"/>
  <anchor x="322" y="740" name="top"/>
  <anchor x="305" y="-60" name="b.minus-60"/>
  <anchor x="163" y="10" name="b.cedilla"/>
  <outline>
    <contour>
      <point x="19" y="-2" type="curve"/>
      <point x="61" y="-1"/>
      <point x="103" y="0"/>
      <point x="156" y="0" type="curve" smooth="yes"/>
      <point x="202" y="0"/>
      <point x="230" y="-1"/>
      <point x="273" y="-2" type="curve"/>
      <point x="279" y="4"/>
      <point x="279" y="26"/>
      <point x="273" y="32" type="curve"/>
      <point x="231" y="36"/>
      <point x="221" y="39"/>
      <point x="221" y="122" type="curve"/>
      <point x="91" y="122" type="line"/>
      <point x="91" y="39"/>
      <point x="80" y="37"/>
      <point x="19" y="32" type="curve"/>
      <point x="13" y="26"/>
      <point x="13" y="4"/>
    </contour>
    <contour>
      <point x="332" y="-2" type="curve"/>
      <point x="374" y="-1"/>
      <point x="406" y="0"/>
      <point x="454" y="0" type="curve" smooth="yes"/>
      <point x="509" y="0"/>
      <point x="553" y="-1"/>
      <point x="596" y="-2" type="curve"/>
      <point x="602" y="4"/>
      <point x="602" y="26"/>
      <point x="596" y="32" type="curve"/>
      <point x="535" y="35"/>
      <point x="519" y="39"/>
      <point x="519" y="122" type="curve"/>
      <point x="389" y="122" type="line"/>
      <point x="389" y="39"/>
      <point x="373" y="35"/>
      <point x="332" y="32" type="curve"/>
      <point x="326" y="26"/>
      <point x="326" y="4"/>
    </contour>
    <contour>
      <point x="221" y="122" type="line"/>
      <point x="221" y="576" type="line"/>
      <point x="91" y="576" type="line"/>
      <point x="91" y="122" type="line"/>
    </contour>
    <contour>
      <point x="519" y="122" type="line"/>
      <point x="519" y="284" type="line" smooth="yes"/>
      <point x="519" y="390.729"/>
      <point x="474.719" y="444"/>
      <point x="386" y="444" type="curve" smooth="yes"/>
      <point x="354.371" y="444"/>
      <point x="282.233" y="410.676"/>
      <point x="202" y="359" type="curve"/>
      <point x="202" y="320" type="line"/>
      <point x="248.784" y="351.189"/>
      <point x="290.92" y="370"/>
      <point x="314" y="370" type="curve" smooth="yes"/>
      <point x="362.5" y="370"/>
      <point x="389" y="343.5"/>
      <point x="389" y="295" type="curve" smooth="yes"/>
      <point x="389" y="122" type="line"/>
    </contour>
    <contour>
      <point x="91" y="576" type="curve"/>
      <point x="221" y="576" type="line"/>
      <point x="221" y="627.375"/>
      <point x="222.078" y="655.678"/>
      <point x="225" y="681" type="curve"/>
      <point x="225" y="691.674"/>
      <point x="216.441" y="698"/>
      <point x="202" y="698" type="curve"/>
      <point x="172.764" y="686.306"/>
      <point x="88.6902" y="673.08"/>
      <point x="24" y="670" type="curve"/>
      <point x="22.3" y="664.9"/>
      <point x="23.5714" y="643.286"/>
      <point x="26" y="636" type="curve"/>
      <point x="78.6047" y="630.942"/>
      <point x="91" y="619.5"/>
    </contour>
  </outline>
</glyph>
<glyph name="l" format="2">
  <advance width="314"/>
  <unicode hex="006C"/>
  <anchor x="143" y="740" name="top"/>
  <anchor x="156" y="-60" name="b.minus-60"/>
  <anchor x="273" y="652" name="apostrophe"/>
  <outline>
    <contour>
      <point x="19" y="-2" type="curve"/>
      <point x="61" y="-1"/>
      <point x="108" y="0"/>
      <point x="161" y="0" type="curve"/>
      <point x="161" y="122" type="line"/>
      <point x="91" y="122" type="line"/>
      <point x="91" y="39"/>
      <point x="80" y="35"/>
      <point x="19" y="32" type="curve"/>
      <point x="13" y="26"/>
      <point x="13" y="4"/>
    </contour>
    <contour>
      <point x="91" y="110" type="line"/>
      <point x="221" y="110" type="line"/>
      <point x="221" y="590" type="line"/>
      <point x="91" y="590" type="line"/>
    </contour>
    <contour>
      <point x="90.9367" y="576" type="curve"/>
      <point x="220.937" y="576" type="line"/>
      <point x="220.937" y="627.375"/>
      <point x="222.015" y="655.678"/>
      <point x="224.937" y="681" type="curve"/>
      <point x="224.937" y="691.674"/>
      <point x="216.378" y="698"/>
      <point x="201.937" y="698" type="curve"/>
      <point x="172.701" y="686.306"/>
      <point x="88.627" y="673.08"/>
      <point x="23.9367" y="670" type="curve"/>
      <point x="22.2367" y="664.9"/>
      <point x="23.5081" y="643.286"/>
      <point x="25.9367" y="636" type="curve"/>
      <point x="78.5414" y="630.942"/>
      <point x="90.9367" y="619.5"/>
    </contour>
    <contour>
      <point x="151" y="0" type="line"/>
      <point x="196" y="-1"/>
      <point x="248" y="-1"/>
      <point x="293" y="-2" type="curve"/>
      <point x="299" y="4"/>
      <point x="299" y="26"/>
      <point x="293" y="32" type="curve"/>
      <point x="232" y="35"/>
      <point x="221" y="39"/>
      <point x="221" y="122" type="curve"/>
      <point x="151" y="122" type="line"/>
    </contour>
  </outline>
</glyph>
<glyph name="currency" format="2">
  <advance width="463"/>
  <unicode hex="00A4"/>
  <outline>
    <contour>
      <point x="35" y="299" type="curve" smooth="yes"/>
      <point x="35" y="260.901"/>
      <point x="48" y="226"/>
      <point x="76" y="191" type="curve"/>
      <point x="23" y="148" type="line"/>
      <point x="84" y="89" type="line"/>
      <point x="130" y="147" type="line"/>
      <point x="159" y="131"/>
      <point x="192" y="122"/>
      <point x="230" y="122" type="curve" smooth="yes"/>
      <point x="269" y="122"/>
      <point x="303" y="132"/>
      <point x="333" y="149" type="curve"/>
      <point x="384" y="91" type="line"/>
      <point x="438" y="149" type="line"/>
      <point x="386" y="193" type="line"/>
      <point x="412" y="228"/>
      <point x="425" y="262.896"/>
      <point x="425" y="299" type="curve" smooth="yes"/>
      <point x="425" y="337.099"/>
      <point x="413" y="372"/>
      <point x="385" y="406" type="curve"/>
      <point x="440" y="451" type="line"/>
      <point x="382" y="512" type="line"/>
      <point x="331" y="451" type="line"/>
      <point x="302" y="467"/>
      <point x="272" y="477"/>
      <point x="232" y="477" type="curve" smooth="yes"/>
      <point x="193" y="477"/>
      <point x="160" y="468"/>
      <point x="130" y="452" type="curve"/>
      <point x="80" y="507" type="line"/>
      <point x="25" y="450" type="line"/>
      <point x="77" y="409" type="line"/>
      <point x="48" y="374"/>
      <point x="35" y="338.096"/>
    </contour>
    <contour>
      <point x="114" y="300" type="curve" smooth="yes"/>
      <point x="114" y="369"/>
      <point x="167" y="422"/>
      <point x="232" y="422" type="curve" smooth="yes"/>
      <point x="290" y="422"/>
      <point x="346" y="371"/>
      <point x="346" y="299" type="curve" smooth="yes"/>
      <point x="346" y="231"/>
      <point x="297" y="177"/>
      <point x="230" y="177" type="curve" smooth="yes"/>
      <point x="164" y="177"/>
      <point x="114" y="230"/>
    </contour>
  </outline>
</glyph>
<glyph name="cedilla" format="2">
  <advance width="541"/>
  <unicode hex="00B8"/>
  <outline>
    <contour>
      <point x="236" y="-101" type="line"/>
      <point x="243" y="-98"/>
      <point x="257.469" y="-97"/>
      <point x="272" y="-97" type="curve" smooth="yes"/>
      <point x="305" y="-97"/>
      <point x="325" y="-113.648"/>
      <point x="325" y="-142" type="curve" smooth="yes"/>
      <point x="325" y="-169"/>
      <point x="305" y="-186"/>
      <point x="275" y="-186" type="curve" smooth="yes"/>
      <point x="258" y="-186"/>
      <point x="249" y="-184"/>
      <point x="217" y="-172" type="curve"/>
      <point x="210" y="-175"/>
      <point x="207" y="-183"/>
      <point x="207" y="-198" type="curve"/>
      <point x="227" y="-209"/>
      <point x="251" y="-215"/>
      <point x="271" y="-215" type="curve" smooth="yes"/>
      <point x="342" y="-215"/>
      <point x="388" y="-173.308"/>
      <point x="388" y="-109" type="curve" smooth="yes"/>
      <point x="388" y="-67.0384"/>
      <point x="359.938" y="-38.3741"/>
      <point x="317.836" y="-37.9435" type="curve" smooth="yes"/>
      <point x="310.683" y="-37.8703"/>
      <point x="296.919" y="-38.6734"/>
      <point x="292" y="-40" type="curve"/>
      <point x="315" y="7" type="line"/>
      <point x="281" y="7" type="line"/>
      <point x="230" y="-95" type="line"/>
    </contour>
  </outline>
</glyph>
<glyph name="AE" format="2">
  <advance width="956"/>
  <unicode hex="00C6"/>
  <anchor x="517" y="740" name="top"/>
  <outline>
    <contour>
      <point x="112" y="102" type="line" smooth="yes"/>
      <point x="80.1738" y="43.9045"/>
      <point x="56" y="35"/>
      <point x="12" y="32" type="curve"/>
      <point x="6" y="26"/>
      <point x="6" y="4"/>
      <point x="12" y="-2" type="curve"/>
      <point x="49" y="0"/>
      <point x="67" y="0"/>
      <point x="106" y="0" type="curve" smooth="yes"/>
      <point x="147" y="0"/>
      <point x="202" y="0"/>
      <point x="239" y="-2" type="curve"/>
      <point x="245" y="4"/>
      <point x="245" y="26"/>
      <point x="239" y="32" type="curve"/>
      <point x="207.037" y="34.5234"/>
      <point x="165.137" y="42"/>
      <point x="165.153" y="62.8667" type="curve" smooth="yes"/>
      <point x="165.157" y="67.4729"/>
      <point x="166.656" y="72.8079"/>
      <point x="170" y="79" type="curve" smooth="yes"/>
      <point x="271" y="266" type="line"/>
      <point x="449" y="266" type="line"/>
      <point x="449" y="122" type="line" smooth="yes"/>
      <point x="449" y="39"/>
      <point x="432" y="35"/>
      <point x="362" y="32" type="curve"/>
      <point x="356" y="26"/>
      <point x="356" y="4"/>
      <point x="362" y="-2" type="curve"/>
      <point x="411" y="0"/>
      <point x="505.5" y="0"/>
      <point x="516" y="0" type="curve" smooth="yes"/>
      <point x="735" y="0" type="line"/>
      <point x="786.675" y="0"/>
      <point x="838.339" y="0.148"/>
      <point x="890" y="-2" type="curve"/>
      <point x="904" y="48"/>
      <point x="909" y="114"/>
      <point x="917" y="165" type="curve"/>
      <point x="907" y="171"/>
      <point x="885" y="173"/>
      <point x="872" y="170" type="curve"/>
      <point x="852" y="98"/>
      <point x="807" y="42"/>
      <point x="731" y="42" type="curve" smooth="yes"/>
      <point x="630" y="42" type="line" smooth="yes"/>
      <point x="608" y="42"/>
      <point x="589" y="63"/>
      <point x="589" y="90" type="curve" smooth="yes"/>
      <point x="589" y="317" type="line"/>
      <point x="670" y="317" type="line" smooth="yes"/>
      <point x="739" y="317"/>
      <point x="758" y="300"/>
      <point x="761" y="255" type="curve"/>
      <point x="767" y="249"/>
      <point x="798" y="249"/>
      <point x="804" y="255" type="curve"/>
      <point x="803" y="290"/>
      <point x="802" y="309"/>
      <point x="802" y="343" type="curve" smooth="yes"/>
      <point x="802" y="377"/>
      <point x="803" y="399"/>
      <point x="804" y="429" type="curve"/>
      <point x="798" y="435"/>
      <point x="767" y="435"/>
      <point x="761" y="429" type="curve"/>
      <point x="758" y="374"/>
      <point x="737" y="367"/>
      <point x="670" y="367" type="curve" smooth="yes"/>
      <point x="589" y="367" type="line"/>
      <point x="589" y="554" type="line" smooth="yes"/>
      <point x="589" y="578"/>
      <point x="606" y="603"/>
      <point x="630" y="603" type="curve" smooth="yes"/>
      <point x="715" y="603" type="line" smooth="yes"/>
      <point x="790" y="603"/>
      <point x="811" y="565"/>
      <point x="833" y="496" type="curve"/>
      <point x="845" y="494"/>
      <point x="866" y="496"/>
      <point x="876" y="501" type="curve"/>
      <point x="871" y="542"/>
      <point x="866" y="638"/>
      <point x="864" y="646" type="curve"/>
      <point x="864" y="648"/>
      <point x="863" y="649"/>
      <point x="860" y="649" type="curve"/>
      <point x="837.368" y="645.006"/>
      <point x="816" y="645"/>
      <point x="793" y="645" type="curve" smooth="yes"/>
      <point x="700.6" y="645"/>
      <point x="605.4" y="645"/>
      <point x="513" y="645" type="curve" smooth="yes"/>
      <point x="444" y="645" type="line" smooth="yes"/>
      <point x="398" y="645"/>
      <point x="352" y="647"/>
      <point x="306" y="647" type="curve"/>
      <point x="303.145" y="637"/>
      <point x="303.145" y="621.544"/>
      <point x="307.487" y="613.359" type="curve"/>
      <point x="349.57" y="612.979"/>
      <point x="370.682" y="603.124"/>
      <point x="370.817" y="583.795" type="curve" smooth="yes"/>
      <point x="370.858" y="577.997"/>
      <point x="368.533" y="570.274"/>
      <point x="364" y="562" type="curve" smooth="yes"/>
    </contour>
    <contour>
      <point x="297" y="316" type="line"/>
      <point x="420" y="546" type="line" smooth="yes"/>
      <point x="428.657" y="562.188"/>
      <point x="431.201" y="564.958"/>
      <point x="438.182" y="569.637" type="curve"/>
      <point x="443.564" y="565.188"/>
      <point x="449" y="558"/>
      <point x="449" y="545" type="curve"/>
      <point x="449" y="316" type="line"/>
    </contour>
  </outline>
</glyph>
<glyph name="kgreenlandic" format="2">
  <advance width="600"/>
  <unicode hex="0138"/>
  <anchor x="280" y="500" name="top"/>
  <outline>
    <contour>
      <point x="214.016" y="209.128" type="line"/>
      <point x="227.96" y="208.68"/>
      <point x="253.725" y="207.43"/>
      <point x="265.316" y="205.061" type="curve"/>
      <point x="273.174" y="201.768"/>
      <point x="277.665" y="200.434"/>
      <point x="284" y="190" type="curve" smooth="yes"/>
      <point x="352" y="78" type="line" smooth="yes"/>
      <point x="366.933" y="53.4037"/>
      <point x="368" y="37.0045"/>
      <point x="368" y="9" type="curve" smooth="yes"/>
      <point x="368" y="0" type="line"/>
      <point x="368.203" y="-1.2087"/>
      <point x="368.646" y="-1.8813"/>
      <point x="370" y="-2" type="curve"/>
      <point x="376.9" y="-1.8"/>
      <point x="439" y="0"/>
      <point x="474" y="0" type="curve" smooth="yes"/>
      <point x="487" y="0" type="line" smooth="yes"/>
      <point x="526" y="0"/>
      <point x="577.3" y="-1.8"/>
      <point x="583" y="-2" type="curve"/>
      <point x="589.715" y="6.71241"/>
      <point x="589.715" y="25.2854"/>
      <point x="584" y="31" type="curve"/>
      <point x="545.18" y="31"/>
      <point x="513.936" y="47.1367"/>
      <point x="493" y="78" type="curve" smooth="yes"/>
      <point x="377" y="249" type="line" smooth="yes"/>
      <point x="374.489" y="252.701"/>
      <point x="372" y="257.877"/>
      <point x="372" y="261" type="curve" smooth="yes"/>
      <point x="372" y="264.264"/>
      <point x="373.34" y="268.183"/>
      <point x="375" y="270" type="curve" smooth="yes"/>
      <point x="449" y="351" type="line" smooth="yes"/>
      <point x="475.45" y="379.952"/>
      <point x="513.455" y="397.223"/>
      <point x="561.224" y="402" type="curve"/>
      <point x="568.759" y="408.253"/>
      <point x="568.871" y="425.532"/>
      <point x="565" y="436" type="curve"/>
      <point x="557.4" y="435.8"/>
      <point x="489" y="434"/>
      <point x="450" y="434" type="curve" smooth="yes"/>
      <point x="424.086" y="434"/>
      <point x="374.436" y="434.987"/>
      <point x="346.872" y="435.58" type="curve"/>
      <point x="328" y="436" type="line"/>
      <point x="321.354" y="428.271"/>
      <point x="318.094" y="405"/>
      <point x="327" y="405" type="curve"/>
      <point x="363.239" y="405"/>
      <point x="379.148" y="396.126"/>
      <point x="379.148" y="375.912" type="curve" smooth="yes"/>
      <point x="379.148" y="360.058"/>
      <point x="372.93" y="351.291"/>
      <point x="339.761" y="314.185" type="curve" smooth="yes"/>
      <point x="334.153" y="307.912" type="line" smooth="yes"/>
      <point x="300.103" y="269.821"/>
      <point x="268.935" y="249.556"/>
      <point x="214.016" y="249.556" type="curve"/>
    </contour>
    <contour>
      <point x="25" y="-2" type="curve"/>
      <point x="67" y="-1"/>
      <point x="114" y="0"/>
      <point x="167" y="0" type="curve"/>
      <point x="167" y="122" type="line"/>
      <point x="97" y="122" type="line"/>
      <point x="97" y="39"/>
      <point x="86" y="35"/>
      <point x="25" y="32" type="curve"/>
      <point x="19" y="26"/>
      <point x="19" y="4"/>
    </contour>
    <contour>
      <point x="96.9367" y="322" type="curve"/>
      <point x="226.937" y="322" type="line"/>
      <point x="226.937" y="373.375"/>
      <point x="228.015" y="401.678"/>
      <point x="230.937" y="427" type="curve"/>
      <point x="230.937" y="437.674"/>
      <point x="222.378" y="444"/>
      <point x="207.937" y="444" type="curve"/>
      <point x="178.701" y="432.306"/>
      <point x="94.627" y="419.08"/>
      <point x="29.9367" y="416" type="curve"/>
      <point x="28.2367" y="410.9"/>
      <point x="29.5081" y="389.286"/>
      <point x="31.9367" y="382" type="curve"/>
      <point x="84.5414" y="376.942"/>
      <point x="96.9367" y="365.5"/>
    </contour>
    <contour>
      <point x="97" y="110" type="line"/>
      <point x="227" y="110" type="line"/>
      <point x="227" y="330" type="line"/>
      <point x="97" y="330" type="line"/>
    </contour>
    <contour>
      <point x="157" y="0" type="line"/>
      <point x="202" y="-1"/>
      <point x="254" y="-1"/>
      <point x="299" y="-2" type="curve"/>
      <point x="305" y="4"/>
      <point x="305" y="26"/>
      <point x="299" y="32" type="curve"/>
      <point x="238" y="35"/>
      <point x="227" y="39"/>
      <point x="227" y="122" type="curve"/>
      <point x="157" y="122" type="line"/>
    </contour>
  </outline>
</glyph>
<glyph name="Lslash" format="2">
  <advance width="577"/>
  <unicode hex="0141"/>
  <outline>
    <component base="L"/>
    <contour>
      <point x="240.165" y="349.79" type="line"/>
      <point x="344" y="410" type="line"/>
      <point x="344" y="423.757"/>
      <point x="335.285" y="445.4"/>
      <point x="318.814" y="453.221" type="curve"/>
      <point x="240.406" y="401.07" type="line"/>
    </contour>
    <contour>
      <point x="43" y="227" type="curve"/>
      <point x="127.9" y="281.498" type="line"/>
      <point x="128.226" y="332.032" type="line"/>
      <point x="17.3426" y="270.762" type="line"/>
      <point x="17.3426" y="250.146"/>
      <point x="29.2977" y="234.387"/>
    </contour>
  </outline>
</glyph>
<glyph name="Tbar" format="2">
  <advance width="652"/>
  <unicode hex="0166"/>
  <outline>
    <component base="T"/>
    <contour>
      <point x="314" y="316" type="line"/>
      <point x="314" y="364" type="line"/>
      <point x="187" y="364" type="line" smooth="yes"/>
      <point x="178" y="364"/>
      <point x="162" y="354"/>
      <point x="162" y="333" type="curve" smooth="yes"/>
      <point x="162" y="325"/>
      <point x="165" y="316"/>
      <point x="172" y="316" type="curve" smooth="yes"/>
    </contour>
    <contour>
      <point x="343" y="316" type="line"/>
      <point x="478" y="316" type="line" smooth="yes"/>
      <point x="489" y="316"/>
      <point x="503" y="328"/>
      <point x="503" y="345" type="curve" smooth="yes"/>
      <point x="503" y="354"/>
      <point x="500" y="364"/>
      <point x="493" y="364" type="curve" smooth="yes"/>
      <point x="343" y="364" type="line"/>
    </contour>
  </outline>
</glyph>
<glyph name="aringacute" format="2">
  <advance width="506"/>
  <unicode hex="01FB"/>
  <outline>
    <contour>
      <point x="295" y="49" type="line"/>
      <point x="302" y="8"/>
      <point x="329" y="-10"/>
      <point x="373" y="-10" type="curve" smooth="yes"/>
      <point x="383" y="-10"/>
      <point x="392" y="-9"/>
      <point x="401" y="-8" type="curve"/>
      <point x="442" y="-2"/>
      <point x="474" y="17"/>
      <point x="504" y="46" type="curve"/>
      <point x="502" y="58"/>
      <point x="498" y="66"/>
      <point x="486" y="74" type="curve"/>
      <point x="473" y="64"/>
      <point x="463" y="60"/>
      <point x="444" y="60" type="curve" smooth="yes"/>
      <point x="422" y="60"/>
      <point x="415.32" y="78.0047"/>
      <point x="416" y="127" type="curve" smooth="yes"/>
      <point x="418" y="271" type="line" smooth="yes"/>
      <point x="420" y="414.986"/>
      <point x="329" y="444"/>
      <point x="247" y="444" type="curve" smooth="yes"/>
      <point x="174" y="444"/>
      <point x="62" y="402"/>
      <point x="62" y="336" type="curve" smooth="yes"/>
      <point x="62" y="313"/>
      <point x="70" y="294"/>
      <point x="96" y="288" type="curve"/>
      <point x="101" y="287"/>
      <point x="107" y="286"/>
      <point x="113" y="286" type="curve" smooth="yes"/>
      <point x="144" y="286"/>
      <point x="167" y="302"/>
      <point x="173" y="322" type="curve"/>
      <point x="174" y="325"/>
      <point x="175" y="329"/>
      <point x="175" y="332" type="curve" smooth="yes"/>
      <point x="175" y="337"/>
      <point x="174" y="343"/>
      <point x="173" y="349" type="curve" smooth="yes"/>
      <point x="172" y="356"/>
      <point x="170" y="362"/>
      <point x="170" y="369" type="curve" smooth="yes"/>
      <point x="170" y="372"/>
      <point x="170" y="376"/>
      <point x="171" y="379" type="curve"/>
      <point x="172" y="390"/>
      <point x="180" y="402"/>
      <point x="213" y="402" type="curve" smooth="yes"/>
      <point x="219" y="402"/>
      <point x="225" y="402"/>
      <point x="230" y="401" type="curve" smooth="yes"/>
      <point x="261" y="395"/>
      <point x="286" y="370"/>
      <point x="289" y="283" type="curve"/>
      <point x="290" y="275"/>
      <point x="290" y="266"/>
      <point x="290" y="257" type="curve"/>
      <point x="223" y="236" type="line" smooth="yes"/>
      <point x="117.974" y="203.082"/>
      <point x="44" y="174"/>
      <point x="44" y="95" type="curve" smooth="yes"/>
      <point x="44" y="26"/>
      <point x="82" y="-10"/>
      <point x="169" y="-10" type="curve" smooth="yes"/>
      <point x="172" y="-10"/>
      <point x="175" y="-10"/>
      <point x="179" y="-9" type="curve"/>
      <point x="206" y="-4"/>
      <point x="248" y="19"/>
      <point x="278" y="40" type="curve"/>
      <point x="282" y="43"/>
      <point x="286" y="45"/>
      <point x="289" y="48" type="curve"/>
    </contour>
    <contour>
      <point x="137" y="582" type="curve" smooth="yes"/>
      <point x="137" y="536"/>
      <point x="176" y="499"/>
      <point x="222" y="499" type="curve" smooth="yes"/>
      <point x="269" y="499"/>
      <point x="308" y="537"/>
      <point x="308" y="582" type="curve" smooth="yes"/>
      <point x="308" y="629"/>
      <point x="267" y="665"/>
      <point x="222" y="665" type="curve" smooth="yes"/>
      <point x="175" y="665"/>
      <point x="137" y="628"/>
    </contour>
    <contour>
      <point x="290" y="218" type="line"/>
      <point x="290" y="115" type="line"/>
      <point x="290" y="86" type="line"/>
      <point x="286" y="83"/>
      <point x="282" y="79"/>
      <point x="278" y="76" type="curve" smooth="yes"/>
      <point x="257" y="61"/>
      <point x="237" y="50"/>
      <point x="222" y="50" type="curve" smooth="yes"/>
      <point x="179" y="50"/>
      <point x="164" y="79"/>
      <point x="164" y="110" type="curve" smooth="yes"/>
      <point x="164" y="147"/>
      <point x="167" y="178"/>
      <point x="238" y="201" type="curve" smooth="yes"/>
    </contour>
    <contour>
      <point x="240" y="830" type="curve"/>
      <point x="178" y="719" type="line"/>
      <point x="177" y="717"/>
      <point x="175" y="714"/>
      <point x="174" y="712" type="curve"/>
      <point x="169" y="704"/>
      <point x="167" y="696"/>
      <point x="167" y="690" type="curve" smooth="yes"/>
      <point x="167" y="685"/>
      <point x="174" y="678"/>
      <point x="180" y="678" type="curve" smooth="yes"/>
      <point x="188" y="678"/>
      <point x="199" y="681"/>
      <point x="210" y="692" type="curve" smooth="yes"/>
      <point x="306" y="789" type="line"/>
      <point x="298" y="810" type="line"/>
      <point x="292" y="819"/>
      <point x="277" y="831"/>
      <point x="253" y="831" type="curve" smooth="yes"/>
      <point x="249" y="831"/>
      <point x="242" y="831"/>
    </contour>
    <contour>
      <point x="222" y="631" type="curve" smooth="yes"/>
      <point x="249" y="631"/>
      <point x="270" y="611"/>
      <point x="270" y="582" type="curve" smooth="yes"/>
      <point x="270" y="556"/>
      <point x="251" y="533"/>
      <point x="222" y="533" type="curve" smooth="yes"/>
      <point x="193" y="533"/>
      <point x="175" y="556"/>
      <point x="175" y="582" type="curve" smooth="yes"/>
      <point x="175" y="610"/>
      <point x="194" y="631"/>
    </contour>
  </outline>
</glyph>
<glyph name="uni0296" format="2">
  <advance width="408"/>
  <unicode hex="0296"/>
  <outline>
    <contour>
      <point x="124" y="523" type="line"/>
      <point x="124" y="434" type="line" smooth="yes"/>
      <point x="124" y="266.569"/>
      <point x="277.92" y="239"/>
      <point x="278" y="98" type="curve" smooth="yes"/>
      <point x="278.025" y="54.8948"/>
      <point x="259" y="21"/>
      <point x="212" y="21" type="curve" smooth="yes"/>
      <point x="175" y="21"/>
      <point x="141" y="54"/>
      <point x="141" y="91" type="curve" smooth="yes"/>
      <point x="141" y="102.882"/>
      <point x="145" y="114"/>
      <point x="145" y="125" type="curve" smooth="yes"/>
      <point x="145" y="157.824"/>
      <point x="104" y="167.107"/>
      <point x="81" y="167" type="curve" smooth="yes"/>
      <point x="51" y="166.86"/>
      <point x="17" y="149"/>
      <point x="17" y="119" type="curve" smooth="yes"/>
      <point x="17" y="31.8342"/>
      <point x="118" y="-13"/>
      <point x="214" y="-13" type="curve" smooth="yes"/>
      <point x="334" y="-13"/>
      <point x="408.102" y="43"/>
      <point x="408" y="115" type="curve" smooth="yes"/>
      <point x="407.848" y="222.528"/>
      <point x="264" y="276"/>
      <point x="264" y="458" type="curve" smooth="yes"/>
      <point x="264" y="523" type="line"/>
    </contour>
    <contour>
      <point x="41" y="647" type="curve"/>
      <point x="31" y="641"/>
      <point x="31" y="619"/>
      <point x="41" y="613" type="curve"/>
      <point x="96" y="609.995"/>
      <point x="124" y="605.988"/>
      <point x="124" y="522.848" type="curve"/>
      <point x="264" y="522.848" type="line"/>
      <point x="264" y="605.988"/>
      <point x="292" y="609.995"/>
      <point x="347" y="613" type="curve"/>
      <point x="357" y="619"/>
      <point x="357" y="641"/>
      <point x="347" y="647" type="curve"/>
      <point x="307" y="646"/>
      <point x="235" y="645"/>
      <point x="195" y="645" type="curve" smooth="yes"/>
      <point x="155" y="645"/>
      <point x="81" y="646"/>
    </contour>
  </outline>
</glyph>
<glyph name="uni02A8" format="2">
  <advance width="677"/>
  <unicode hex="02A8"/>
  <anchor x="452" y="500" name="top"/>
  <outline>
    <component base="t"/>
    <contour>
      <point x="403" y="130" type="line"/>
      <point x="389" y="157"/>
      <point x="382" y="192"/>
      <point x="382" y="236" type="curve" smooth="yes"/>
      <point x="382" y="347"/>
      <point x="407" y="402"/>
      <point x="460" y="402" type="curve" smooth="yes"/>
      <point x="497" y="402"/>
      <point x="512" y="363"/>
      <point x="515" y="331" type="curve" smooth="yes"/>
      <point x="518" y="304"/>
      <point x="545" y="284"/>
      <point x="577" y="284" type="curve" smooth="yes"/>
      <point x="609" y="284"/>
      <point x="632" y="309"/>
      <point x="632" y="340" type="curve" smooth="yes"/>
      <point x="632" y="385"/>
      <point x="578" y="444"/>
      <point x="469" y="444" type="curve" smooth="yes"/>
      <point x="351" y="444"/>
      <point x="247" y="349"/>
      <point x="247" y="201" type="curve" smooth="yes"/>
      <point x="247" y="117"/>
      <point x="279" y="57"/>
      <point x="334" y="23" type="curve"/>
    </contour>
    <contour>
      <point x="643" y="150" type="curve" smooth="yes"/>
      <point x="643" y="186"/>
      <point x="603" y="195"/>
      <point x="564" y="195" type="curve" smooth="yes"/>
      <point x="504" y="195"/>
      <point x="458" y="146"/>
      <point x="427" y="104" type="curve"/>
      <point x="418" y="111"/>
      <point x="410" y="120"/>
      <point x="403" y="130" type="curve"/>
      <point x="334" y="23" type="line"/>
      <point x="343" y="17"/>
      <point x="352" y="12"/>
      <point x="361" y="7" type="curve"/>
      <point x="341" y="-22"/>
      <point x="319" y="-59"/>
      <point x="301" y="-92" type="curve"/>
      <point x="319.48" y="-102.97"/>
      <point x="338.52" y="-106.03"/>
      <point x="357" y="-101" type="curve"/>
      <point x="375" y="-69"/>
      <point x="393" y="-40"/>
      <point x="415" y="-11" type="curve"/>
      <point x="422" y="-12"/>
      <point x="430" y="-12"/>
      <point x="438" y="-12" type="curve" smooth="yes"/>
      <point x="523" y="-12"/>
      <point x="643" y="65"/>
    </contour>
    <contour>
      <point x="577" y="141" type="curve" smooth="yes"/>
      <point x="577" y="96"/>
      <point x="522" y="70"/>
      <point x="488" y="70" type="curve" smooth="yes"/>
      <point x="484" y="70"/>
      <point x="476" y="71"/>
      <point x="469" y="72" type="curve"/>
      <point x="493" y="104"/>
      <point x="538" y="162"/>
      <point x="562" y="162" type="curve" smooth="yes"/>
      <point x="569" y="162"/>
      <point x="577" y="158"/>
    </contour>
  </outline>
</glyph>
<glyph name="uni030B" format="2">
  <unicode hex="030B"/>
  <anchor x="-219" y="500" name="_top"/>
  <outline>
    <contour>
      <point x="-155" y="637" type="curve" smooth="yes"/>
      <point x="-155" y="656"/>
      <point x="-175" y="673"/>
      <point x="-197" y="673" type="curve" smooth="yes"/>
      <point x="-208" y="673"/>
      <point x="-222.131" y="671.059"/>
      <point x="-227" y="660" type="curve" smooth="yes"/>
      <point x="-286" y="526" type="line" smooth="yes"/>
      <point x="-288.17" y="521.071"/>
      <point x="-289" y="517"/>
      <point x="-289" y="513" type="curve" smooth="yes"/>
      <point x="-289" y="503"/>
      <point x="-284" y="497"/>
      <point x="-276" y="497" type="curve" smooth="yes"/>
      <point x="-269" y="497"/>
      <point x="-261.167" y="501.139"/>
      <point x="-252" y="512" type="curve" smooth="yes"/>
      <point x="-160" y="621" type="line" smooth="yes"/>
      <point x="-155.87" y="625.893"/>
      <point x="-155" y="632"/>
    </contour>
    <contour>
      <point x="-26" y="625" type="curve" smooth="yes"/>
      <point x="-26" y="649"/>
      <point x="-42" y="668"/>
      <point x="-67" y="668" type="curve" smooth="yes"/>
      <point x="-86" y="668"/>
      <point x="-93.2336" y="653.143"/>
      <point x="-95" y="650" type="curve" smooth="yes"/>
      <point x="-163" y="529" type="line" smooth="yes"/>
      <point x="-165.857" y="523.917"/>
      <point x="-167" y="519"/>
      <point x="-167" y="515" type="curve" smooth="yes"/>
      <point x="-167" y="506"/>
      <point x="-159" y="500"/>
      <point x="-152" y="500" type="curve" smooth="yes"/>
      <point x="-147" y="500"/>
      <point x="-142.129" y="503.133"/>
      <point x="-137" y="508" type="curve" smooth="yes"/>
      <point x="-39" y="601" type="line" smooth="yes"/>
      <point x="-31.2892" y="608.317"/>
      <point x="-26" y="613"/>
    </contour>
  </outline>
</glyph>
<glyph name="uni0311" format="2">
  <unicode hex="0311"/>
  <anchor x="-184" y="500" name="_top"/>
  <outline>
    <contour>
      <point x="-73" y="500" type="curve"/>
      <point x="-40" y="510" type="line"/>
      <point x="-47" y="591"/>
      <point x="-100" y="653"/>
      <point x="-181" y="653" type="curve" smooth="yes"/>
      <point x="-232" y="653"/>
      <point x="-310" y="615"/>
      <point x="-320" y="510" type="curve"/>
      <point x="-288" y="500" type="line"/>
      <point x="-285" y="564"/>
      <point x="-228" y="579"/>
      <point x="-181" y="579" type="curve" smooth="yes"/>
      <point x="-118" y="579"/>
      <point x="-75" y="554"/>
    </contour>
  </outline>
</glyph>
<glyph name="uni0331" format="2">
  <unicode hex="0331"/>
  <anchor x="-243" y="-60" name="_b.minus-60"/>
  <outline>
    <contour>
      <point x="-123" y="-134" type="line" smooth="yes"/>
      <point x="-110" y="-134"/>
      <point x="-99" y="-111"/>
      <point x="-99" y="-99" type="curve" smooth="yes"/>
      <point x="-99" y="-93"/>
      <point x="-103" y="-80"/>
      <point x="-113" y="-80" type="curve" smooth="yes"/>
      <point x="-357" y="-80" type="line" smooth="yes"/>
      <point x="-369" y="-80"/>
      <point x="-379" y="-102"/>
      <point x="-379" y="-114" type="curve" smooth="yes"/>
      <point x="-379" y="-121"/>
      <point x="-376" y="-134"/>
      <point x="-367" y="-134" type="curve" smooth="yes"/>
    </contour>
  </outline>
</glyph>
<glyph name="uni0342" format="2">
  <unicode hex="0342"/>
  <anchor x="-229" y="449" name="_t.gr_UC"/>
  <anchor x="-229" y="449" name="_t.gr_LC"/>
  <outline>
    <contour>
      <point x="-167" y="519" type="curve" smooth="yes"/>
      <point x="-190.927" y="519"/>
      <point x="-208.035" y="521.848"/>
      <point x="-230.141" y="538.165" type="curve" smooth="yes"/>
      <point x="-246.21" y="550.025"/>
      <point x="-262.358" y="558"/>
      <point x="-289.4" y="558" type="curve" smooth="yes"/>
      <point x="-328.258" y="558"/>
      <point x="-361.514" y="520.738"/>
      <point x="-379" y="465" type="curve"/>
      <point x="-379" y="453.846"/>
      <point x="-369.111" y="447"/>
      <point x="-353" y="447" type="curve"/>
      <point x="-346.093" y="470.86"/>
      <point x="-326.322" y="487"/>
      <point x="-304" y="487" type="curve" smooth="yes"/>
      <point x="-277.144" y="487"/>
      <point x="-259.832" y="479.5"/>
      <point x="-242.515" y="468" type="curve" smooth="yes"/>
      <point x="-217.836" y="451.612"/>
      <point x="-201.157" y="448"/>
      <point x="-181" y="448" type="curve" smooth="yes"/>
      <point x="-142.624" y="448"/>
      <point x="-106.411" y="486.008"/>
      <point x="-90" y="542" type="curve"/>
      <point x="-90" y="553"/>
      <point x="-102.6" y="562"/>
      <point x="-118" y="562" type="curve"/>
      <point x="-128.627" y="534.675"/>
      <point x="-146.488" y="519"/>
    </contour>
  </outline>
</glyph>
<glyph name="uni044C" format="2">
  <advance width="521"/>
  <unicode hex="044C"/>
  <anchor x="193" y="500" name="top"/>
  <outline>
    <contour>
      <point x="25" y="-2" type="curve"/>
      <point x="94" y="0"/>
      <point x="163" y="0"/>
      <point x="232" y="0" type="curve"/>
      <point x="232" y="307" type="line" smooth="yes"/>
      <point x="232" y="390"/>
      <point x="248" y="399"/>
      <point x="309" y="402" type="curve"/>
      <point x="315" y="408"/>
      <point x="315" y="430"/>
      <point x="309" y="436" type="curve"/>
      <point x="266" y="435"/>
      <point x="222" y="434"/>
      <point x="167" y="434" type="curve" smooth="yes"/>
      <point x="112" y="434"/>
      <point x="67" y="435"/>
      <point x="25" y="436" type="curve"/>
      <point x="19" y="430"/>
      <point x="19" y="408"/>
      <point x="25" y="402" type="curve"/>
      <point x="86" y="399"/>
      <point x="102" y="390"/>
      <point x="102" y="307" type="curve" smooth="yes"/>
      <point x="102" y="127" type="line" smooth="yes"/>
      <point x="102" y="44"/>
      <point x="86" y="35"/>
      <point x="25" y="32" type="curve"/>
      <point x="19" y="26"/>
      <point x="19" y="4"/>
    </contour>
    <contour>
      <point x="160" y="0" type="line"/>
      <point x="162" y="0"/>
      <point x="165" y="0"/>
      <point x="167" y="0" type="curve" smooth="yes"/>
      <point x="194" y="0"/>
      <point x="279" y="-2"/>
      <point x="306" y="-2" type="curve" smooth="yes"/>
      <point x="437" y="-2"/>
      <point x="501" y="37"/>
      <point x="501" y="141" type="curve" smooth="yes"/>
      <point x="501" y="252"/>
      <point x="413" y="272"/>
      <point x="300" y="272" type="curve" smooth="yes"/>
      <point x="217" y="272" type="line"/>
      <point x="217" y="234" type="line"/>
      <point x="291" y="234" type="line" smooth="yes"/>
      <point x="366" y="234"/>
      <point x="371" y="172"/>
      <point x="371" y="132" type="curve" smooth="yes"/>
      <point x="371" y="72"/>
      <point x="341" y="36"/>
      <point x="291" y="36" type="curve" smooth="yes"/>
      <point x="255.183" y="36"/>
      <point x="232" y="61.5401"/>
      <point x="232" y="101" type="curve" smooth="yes"/>
      <point x="232" y="122" type="line"/>
      <point x="160" y="122" type="line"/>
    </contour>
  </outline>
</glyph>
<glyph name="uni04BB" format="2">
  <advance width="550"/>
  <unicode hex="04BB"/>
  <outline>
    <contour>
      <point x="207" y="75" type="curve" smooth="yes"/>
      <point x="207" y="230" type="line"/>
      <point x="200" y="228" type="line"/>
      <point x="247" y="273"/>
      <point x="283" y="298"/>
      <point x="303" y="298" type="curve" smooth="yes"/>
      <point x="344" y="298"/>
      <point x="369" y="280"/>
      <point x="369" y="203" type="curve" smooth="yes"/>
      <point x="369" y="75" type="line" smooth="yes"/>
      <point x="369" y="49"/>
      <point x="365" y="35"/>
      <point x="349" y="35" type="curve"/>
      <point x="349" y="35"/>
      <point x="349" y="35"/>
      <point x="349" y="35" type="curve"/>
      <point x="330" y="35" type="line" smooth="yes"/>
      <point x="311" y="35"/>
      <point x="300" y="31"/>
      <point x="300" y="23" type="curve" smooth="yes"/>
      <point x="300" y="8" type="line"/>
      <point x="310" y="-1" type="line"/>
      <point x="310" y="-1"/>
      <point x="391" y="1"/>
      <point x="426" y="1" type="curve" smooth="yes"/>
      <point x="437" y="1" type="line" smooth="yes"/>
      <point x="474" y="1"/>
      <point x="535" y="-1"/>
      <point x="545" y="-1" type="curve" smooth="yes"/>
      <point x="547" y="-1" type="line"/>
      <point x="556" y="8" type="line"/>
      <point x="556" y="23" type="line" smooth="yes"/>
      <point x="556" y="27"/>
      <point x="553" y="30"/>
      <point x="547" y="32" type="curve"/>
      <point x="542" y="34"/>
      <point x="535" y="35"/>
      <point x="527" y="35" type="curve" smooth="yes"/>
      <point x="520" y="35"/>
      <point x="514" y="35"/>
      <point x="507" y="35" type="curve" smooth="yes"/>
      <point x="491" y="35"/>
      <point x="486" y="49"/>
      <point x="486" y="75" type="curve" smooth="yes"/>
      <point x="486" y="192" type="line" smooth="yes"/>
      <point x="486" y="296"/>
      <point x="431" y="352"/>
      <point x="347" y="352" type="curve" smooth="yes"/>
      <point x="310" y="352"/>
      <point x="260" y="342"/>
      <point x="207" y="302" type="curve"/>
      <point x="207" y="358" type="line" smooth="yes"/>
      <point x="207" y="383"/>
      <point x="211" y="397"/>
      <point x="227" y="397" type="curve" smooth="yes"/>
      <point x="230" y="397"/>
      <point x="232" y="397"/>
      <point x="235" y="397" type="curve" smooth="yes"/>
      <point x="243" y="397" type="line" smooth="yes"/>
      <point x="252" y="397"/>
      <point x="259" y="398"/>
      <point x="264" y="401" type="curve"/>
      <point x="269" y="403"/>
      <point x="272" y="406"/>
      <point x="272" y="410" type="curve" smooth="yes"/>
      <point x="272" y="424" type="line"/>
      <point x="263" y="434" type="line"/>
      <point x="263" y="434"/>
      <point x="185" y="432"/>
      <point x="150" y="432" type="curve" smooth="yes"/>
      <point x="139" y="432" type="line" smooth="yes"/>
      <point x="102" y="432"/>
      <point x="41" y="434"/>
      <point x="31" y="434" type="curve" smooth="yes"/>
      <point x="29" y="434" type="line"/>
      <point x="20" y="424" type="line"/>
      <point x="20" y="410" type="line" smooth="yes"/>
      <point x="20" y="406"/>
      <point x="24" y="403"/>
      <point x="29" y="401" type="curve"/>
      <point x="34" y="398"/>
      <point x="42" y="397"/>
      <point x="49" y="397" type="curve" smooth="yes"/>
      <point x="56" y="397"/>
      <point x="62" y="397"/>
      <point x="69" y="397" type="curve" smooth="yes"/>
      <point x="85" y="397"/>
      <point x="90" y="383"/>
      <point x="90" y="358" type="curve" smooth="yes"/>
      <point x="90" y="75" type="line" smooth="yes"/>
      <point x="90" y="49"/>
      <point x="85" y="35"/>
      <point x="69" y="35" type="curve" smooth="yes"/>
      <point x="62" y="35"/>
      <point x="56" y="35"/>
      <point x="49" y="35" type="curve" smooth="yes"/>
      <point x="40" y="35"/>
      <point x="33" y="34"/>
      <point x="28" y="32" type="curve" smooth="yes"/>
      <point x="23" y="30"/>
      <point x="20" y="27"/>
      <point x="20" y="23" type="curve" smooth="yes"/>
      <point x="20" y="8" type="line"/>
      <point x="30" y="-1" type="line"/>
      <point x="30" y="-1"/>
      <point x="97" y="1"/>
      <point x="135" y="1" type="curve" smooth="yes"/>
      <point x="146" y="1" type="line" smooth="yes"/>
      <point x="185" y="1"/>
      <point x="263" y="-1"/>
      <point x="263" y="-1" type="curve"/>
      <point x="273" y="8" type="line"/>
      <point x="273" y="23" type="line" smooth="yes"/>
      <point x="273" y="27"/>
      <point x="270" y="30"/>
      <point x="264" y="32" type="curve"/>
      <point x="259" y="34"/>
      <point x="251" y="35"/>
      <point x="243" y="35" type="curve" smooth="yes"/>
      <point x="238" y="35"/>
      <point x="232" y="35"/>
      <point x="227" y="35" type="curve" smooth="yes"/>
      <point x="212" y="35"/>
      <point x="207" y="49"/>
    </contour>
  </outline>
</glyph>
<glyph name="Enmiddlehookcyr" format="2">
  <advance width="1088"/>
  <unicode hex="0522"/>
  <outline>
    <component base="H"/>
    <contour>
      <point x="1063" y="96" type="curve" smooth="yes"/>
      <point x="1063" y="330.63"/>
      <point x="846.308" y="377.33"/>
      <point x="688.841" y="377.33" type="curve"/>
      <point x="688.841" y="339.48" type="line"/>
      <point x="825.381" y="339.48"/>
      <point x="941" y="286.336"/>
      <point x="941" y="85" type="curve" smooth="yes"/>
      <point x="941" y="-78"/>
      <point x="884" y="-134"/>
      <point x="821" y="-134" type="curve" smooth="yes"/>
      <point x="758.851" y="-134"/>
      <point x="714" y="-97.3589"/>
      <point x="714" y="-34" type="curve"/>
      <point x="646" y="-34" type="line"/>
      <point x="646" y="-192" type="line"/>
      <point x="717" y="-192" type="line"/>
      <point x="717" y="-161.095" type="line" smooth="yes"/>
      <point x="717" y="-152.065"/>
      <point x="721.264" y="-147"/>
      <point x="727.968" y="-147" type="curve" smooth="yes"/>
      <point x="745.46" y="-147"/>
      <point x="767.21" y="-170"/>
      <point x="829" y="-170" type="curve" smooth="yes"/>
      <point x="966" y="-170"/>
      <point x="1063" y="-51"/>
    </contour>
  </outline>
</glyph>
<glyph name="uni05DA" format="2">
  <advance width="475"/>
  <unicode hex="05DA"/>
  <outline>
    <contour>
      <point x="412" y="361" type="line" smooth="yes"/>
      <point x="410" y="400"/>
      <point x="411" y="402"/>
      <point x="412" y="402" type="curve"/>
      <point x="436" y="410"/>
      <point x="457" y="430"/>
      <point x="457" y="457" type="curve" smooth="yes"/>
      <point x="457" y="485"/>
      <point x="445" y="518"/>
      <point x="368" y="518" type="curve" smooth="yes"/>
      <point x="128" y="518" type="line" smooth="yes"/>
      <point x="113" y="518"/>
      <point x="103" y="529"/>
      <point x="97" y="552" type="curve"/>
      <point x="97" y="552"/>
      <point x="12" y="549"/>
      <point x="12" y="475" type="curve" smooth="yes"/>
      <point x="12" y="432"/>
      <point x="43" y="404"/>
      <point x="104" y="404" type="curve" smooth="yes"/>
      <point x="333" y="404" type="line"/>
      <point x="324" y="-167" type="line"/>
      <point x="344" y="-167"/>
      <point x="428" y="-164"/>
      <point x="428" y="-82" type="curve"/>
    </contour>
  </outline>
</glyph>
<glyph name="uni05DD" format="2">
  <advance width="527"/>
  <unicode hex="05DD"/>
  <outline>
    <contour>
      <point x="31" y="0" type="line"/>
      <point x="504" y="0" type="line"/>
      <point x="493" y="341" type="line" smooth="yes"/>
      <point x="488.322" y="486.011"/>
      <point x="457" y="526"/>
      <point x="293" y="526" type="curve" smooth="yes"/>
      <point x="139" y="526" type="line" smooth="yes"/>
      <point x="127" y="526"/>
      <point x="119" y="538"/>
      <point x="114" y="560" type="curve"/>
      <point x="114" y="560"/>
      <point x="27" y="560"/>
      <point x="27" y="489" type="curve" smooth="yes"/>
      <point x="27" y="445"/>
      <point x="61" y="413"/>
      <point x="121" y="413" type="curve" smooth="yes"/>
      <point x="130" y="413" type="line"/>
      <point x="88" y="367"/>
      <point x="41" y="301"/>
      <point x="39" y="264" type="curve"/>
    </contour>
    <contour>
      <point x="329" y="413" type="line" smooth="yes"/>
      <point x="387" y="413"/>
      <point x="401.59" y="375.985"/>
      <point x="407" y="233" type="curve" smooth="yes"/>
      <point x="408.59" y="190.982"/>
      <point x="410" y="148"/>
      <point x="412" y="106" type="curve"/>
      <point x="122" y="106" type="line"/>
      <point x="126" y="247" type="line" smooth="yes"/>
      <point x="127.588" y="302.986"/>
      <point x="153" y="357"/>
      <point x="200" y="413" type="curve"/>
    </contour>
  </outline>
</glyph>
<glyph name="uni05DF" format="2">
  <advance width="282"/>
  <unicode hex="05DF"/>
  <outline>
    <contour>
      <point x="125" y="-200" type="line"/>
      <point x="138" y="-200" type="line"/>
      <point x="151" y="-200" type="line"/>
      <point x="170" y="-199"/>
      <point x="240" y="-197"/>
      <point x="240" y="-90" type="curve" smooth="yes"/>
      <point x="240" y="-72" type="line"/>
      <point x="224" y="237" type="line"/>
      <point x="224" y="244"/>
      <point x="224" y="251"/>
      <point x="224" y="258" type="curve" smooth="yes"/>
      <point x="224" y="295"/>
      <point x="229" y="330"/>
      <point x="239" y="360" type="curve" smooth="yes"/>
      <point x="251" y="396"/>
      <point x="259" y="424"/>
      <point x="259" y="434" type="curve" smooth="yes"/>
      <point x="259" y="510"/>
      <point x="197" y="515"/>
      <point x="139" y="518" type="curve"/>
      <point x="125" y="518"/>
      <point x="101" y="521"/>
      <point x="93" y="559" type="curve"/>
      <point x="93" y="559"/>
      <point x="12" y="548"/>
      <point x="12" y="475" type="curve" smooth="yes"/>
      <point x="12" y="430"/>
      <point x="53.9869" y="405.739"/>
      <point x="131" y="402" type="curve" smooth="yes"/>
      <point x="156.989" y="400.738"/>
      <point x="172" y="393"/>
      <point x="172" y="378" type="curve" smooth="yes"/>
      <point x="172" y="367"/>
      <point x="170" y="356"/>
      <point x="165" y="347" type="curve" smooth="yes"/>
      <point x="151" y="321"/>
      <point x="141" y="297"/>
      <point x="138" y="278" type="curve"/>
      <point x="137" y="273"/>
      <point x="136" y="269"/>
      <point x="136" y="265" type="curve"/>
    </contour>
  </outline>
</glyph>
<glyph name="uni1D51" format="2">
  <advance width="369"/>
  <unicode hex="1D51"/>
  <outline>
    <contour>
      <point x="23.2752" y="347.651" type="curve"/>
      <point x="49.1094" y="348.266"/>
      <point x="74.9436" y="348.881"/>
      <point x="107.544" y="348.881" type="curve" smooth="yes"/>
      <point x="135.838" y="348.881"/>
      <point x="153.061" y="348.266"/>
      <point x="179.511" y="347.651" type="curve"/>
      <point x="183.201" y="351.342"/>
      <point x="183.201" y="364.874"/>
      <point x="179.511" y="368.564" type="curve"/>
      <point x="153.676" y="371.025"/>
      <point x="147.525" y="372.87"/>
      <point x="147.525" y="423.923" type="curve"/>
      <point x="67.5624" y="423.923" type="line"/>
      <point x="67.5624" y="372.87"/>
      <point x="60.7963" y="371.64"/>
      <point x="23.2752" y="368.564" type="curve"/>
      <point x="19.5846" y="364.874"/>
      <point x="19.5846" y="351.342"/>
    </contour>
    <contour>
      <point x="67.5624" y="423.923" type="line"/>
      <point x="147.525" y="423.923" type="line"/>
      <point x="147.525" y="555.555" type="line"/>
      <point x="67.5624" y="543.253" type="line"/>
    </contour>
    <contour>
      <point x="165.363" y="284.296" type="curve" smooth="yes"/>
      <point x="147.584" y="284.296"/>
      <point x="134.608" y="268.724"/>
      <point x="134.608" y="247.39" type="curve" smooth="yes"/>
      <point x="134.608" y="224.756"/>
      <point x="158.254" y="206.178"/>
      <point x="187.507" y="206.178" type="curve" smooth="yes"/>
      <point x="311.757" y="206.178"/>
      <point x="330.825" y="320.587"/>
      <point x="330.825" y="423.923" type="curve"/>
      <point x="250.862" y="423.923" type="line"/>
      <point x="250.862" y="388.863"/>
      <point x="255.168" y="332.889"/>
      <point x="255.168" y="292.292" type="curve" smooth="yes"/>
      <point x="255.168" y="271.994"/>
      <point x="244.711" y="248.005"/>
      <point x="226.258" y="248.005" type="curve" smooth="yes"/>
      <point x="206.857" y="248.005"/>
      <point x="198.203" y="284.296"/>
    </contour>
    <contour>
      <point x="67.5624" y="543.253" type="curve"/>
      <point x="147.525" y="555.555" type="line"/>
      <point x="147.525" y="573.393"/>
      <point x="145.764" y="594.541"/>
      <point x="142.605" y="611.529" type="curve" smooth="yes"/>
      <point x="141.293" y="618.579"/>
      <point x="137.361" y="621.986"/>
      <point x="128.457" y="621.986" type="curve"/>
      <point x="96.7817" y="613.425"/>
      <point x="59.4694" y="606.007"/>
      <point x="26.3506" y="601.687" type="curve"/>
      <point x="25.3146" y="598.579"/>
      <point x="26.0667" y="586.546"/>
      <point x="27.5808" y="582.004" type="curve"/>
      <point x="62.2751" y="578.85"/>
      <point x="67.5623" y="568.472"/>
    </contour>
    <contour>
      <point x="250.862" y="423.923" type="line"/>
      <point x="330.825" y="423.923" type="line"/>
      <point x="330.825" y="523.57" type="line" smooth="yes"/>
      <point x="330.825" y="589.219"/>
      <point x="303.588" y="621.986"/>
      <point x="249.017" y="621.986" type="curve" smooth="yes"/>
      <point x="229.296" y="621.986"/>
      <point x="193.041" y="603.652"/>
      <point x="140.759" y="567.242" type="curve"/>
      <point x="147.525" y="547.558" type="line"/>
      <point x="173.414" y="565.033"/>
      <point x="197.257" y="576.468"/>
      <point x="207.805" y="576.468" type="curve" smooth="yes"/>
      <point x="236.469" y="576.468"/>
      <point x="250.862" y="561.047"/>
      <point x="250.862" y="530.336" type="curve" smooth="yes"/>
    </contour>
  </outline>
</glyph>
<glyph name="uni1FC1" format="2">
  <advance width="368"/>
  <unicode hex="1FC1"/>
  <anchor x="209" y="510" name="_t.gr_UC"/>
  <anchor x="209" y="510" name="_t.gr_LC"/>
  <outline>
    <contour>
      <point x="61" y="564" type="curve" smooth="yes"/>
      <point x="61" y="534"/>
      <point x="86" y="510"/>
      <point x="116" y="510" type="curve" smooth="yes"/>
      <point x="147" y="510"/>
      <point x="171" y="534"/>
      <point x="171" y="564" type="curve" smooth="yes"/>
      <point x="171" y="595"/>
      <point x="147" y="619"/>
      <point x="116" y="619" type="curve" smooth="yes"/>
      <point x="86" y="619"/>
      <point x="61" y="595"/>
    </contour>
    <contour>
      <point x="247" y="564" type="curve" smooth="yes"/>
      <point x="247" y="534"/>
      <point x="271" y="510"/>
      <point x="302" y="510" type="curve" smooth="yes"/>
      <point x="332" y="510"/>
      <point x="357" y="534"/>
      <point x="357" y="564" type="curve" smooth="yes"/>
      <point x="357" y="595"/>
      <point x="332" y="619"/>
      <point x="302" y="619" type="curve" smooth="yes"/>
      <point x="271" y="619"/>
      <point x="247" y="595"/>
    </contour>
    <contour>
      <point x="267.068" y="699.278" type="curve" smooth="yes"/>
      <point x="248.068" y="699.278"/>
      <point x="231.341" y="711.621"/>
      <point x="215.068" y="724.278" type="curve" smooth="yes"/>
      <point x="195.334" y="739.626"/>
      <point x="173.068" y="755.278"/>
      <point x="142.068" y="755.278" type="curve" smooth="yes"/>
      <point x="99.0677" y="755.278"/>
      <point x="77.0677" y="718.278"/>
      <point x="63.0677" y="653.278" type="curve"/>
      <point x="69.3293" y="648.621"/>
      <point x="78.6884" y="644.869"/>
      <point x="89.0677" y="645.278" type="curve"/>
      <point x="98.0677" y="682.278"/>
      <point x="110.068" y="696.278"/>
      <point x="136.068" y="696.278" type="curve" smooth="yes"/>
      <point x="153.068" y="696.278"/>
      <point x="172.031" y="684.227"/>
      <point x="190.068" y="671.278" type="curve" smooth="yes"/>
      <point x="211.031" y="656.227"/>
      <point x="232.068" y="642.278"/>
      <point x="254.068" y="642.278" type="curve" smooth="yes"/>
      <point x="300.068" y="642.278"/>
      <point x="328.068" y="680.278"/>
      <point x="341.068" y="746.278" type="curve"/>
      <point x="333.747" y="751.665"/>
      <point x="325.042" y="755.278"/>
      <point x="315.068" y="756.278" type="curve"/>
      <point x="301.068" y="709.278"/>
      <point x="288.068" y="699.278"/>
    </contour>
  </outline>
</glyph>
<glyph name="uni1FDF" format="2">
  <advance width="356"/>
  <unicode hex="1FDF"/>
  <anchor x="163" y="510" name="_t.gr_LC"/>
  <outline>
    <component base="uni02BC" xScale="-1" xOffset="235.5" yOffset="10"/>
    <contour>
      <point x="240" y="754" type="curve" smooth="yes"/>
      <point x="221" y="754"/>
      <point x="204.273" y="766.343"/>
      <point x="188" y="779" type="curve" smooth="yes"/>
      <point x="168.266" y="794.349"/>
      <point x="146" y="810"/>
      <point x="115" y="810" type="curve" smooth="yes"/>
      <point x="72" y="810"/>
      <point x="50" y="773"/>
      <point x="36" y="708" type="curve"/>
      <point x="42.2616" y="703.344"/>
      <point x="51.6207" y="699.591"/>
      <point x="62" y="700" type="curve"/>
      <point x="71" y="737"/>
      <point x="83" y="751"/>
      <point x="109" y="751" type="curve" smooth="yes"/>
      <point x="126" y="751"/>
      <point x="144.963" y="738.949"/>
      <point x="163" y="726" type="curve" smooth="yes"/>
      <point x="183.964" y="710.949"/>
      <point x="205" y="697"/>
      <point x="227" y="697" type="curve" smooth="yes"/>
      <point x="273" y="697"/>
      <point x="301" y="735"/>
      <point x="314" y="801" type="curve"/>
      <point x="306.68" y="806.387"/>
      <point x="297.974" y="810"/>
      <point x="288" y="811" type="curve"/>
      <point x="274" y="764"/>
      <point x="261" y="754"/>
    </contour>
  </outline>
</glyph>
<glyph name="tugrik" format="2">
  <advance width="652"/>
  <unicode hex="20AE"/>
  <outline>
    <component base="T"/>
    <contour>
      <point x="347.006" y="382.507" type="line"/>
      <point x="497" y="469" type="line"/>
      <point x="497" y="479"/>
      <point x="489.677" y="494.741"/>
      <point x="479" y="499" type="curve"/>
      <point x="346.976" y="423.558" type="line"/>
    </contour>
    <contour>
      <point x="192" y="294" type="curve"/>
      <point x="287.985" y="349.509" type="line"/>
      <point x="288.008" y="390.47" type="line"/>
      <point x="174" y="325" type="line"/>
      <point x="174" y="310.302"/>
      <point x="182.705" y="299.27"/>
    </contour>
    <contour>
      <point x="347.006" y="282.507" type="line"/>
      <point x="497" y="369" type="line"/>
      <point x="497" y="379"/>
      <point x="489.677" y="394.741"/>
      <point x="479" y="399" type="curve"/>
      <point x="346.976" y="323.558" type="line"/>
    </contour>
    <contour>
      <point x="192" y="194" type="curve"/>
      <point x="287.985" y="249.509" type="line"/>
      <point x="288.008" y="290.47" type="line"/>
      <point x="174" y="225" type="line"/>
      <point x="174" y="210.302"/>
      <point x="182.705" y="199.27"/>
    </contour>
  </outline>
</glyph>
<glyph name="uni2116" format="2">
  <advance width="925"/>
  <unicode hex="2116"/>
  <outline>
    <contour>
      <point x="135" y="149" type="curve"/>
      <point x="135" y="73"/>
      <point x="126" y="26"/>
      <point x="104" y="24" type="curve"/>
      <point x="108" y="25"/>
      <point x="110" y="30"/>
      <point x="109" y="38" type="curve"/>
      <point x="103" y="60"/>
      <point x="84" y="84"/>
      <point x="46" y="84" type="curve" smooth="yes"/>
      <point x="18" y="84"/>
      <point x="-8" y="73"/>
      <point x="-8" y="45" type="curve" smooth="yes"/>
      <point x="-8" y="18"/>
      <point x="33.0021" y="-3.98279"/>
      <point x="82" y="-10" type="curve" smooth="yes"/>
      <point x="90.0021" y="-10.9827"/>
      <point x="99" y="-12"/>
      <point x="107" y="-12" type="curve" smooth="yes"/>
      <point x="191" y="-12"/>
      <point x="222" y="43"/>
      <point x="222" y="179" type="curve" smooth="yes"/>
      <point x="222" y="396" type="line" smooth="yes"/>
      <point x="222" y="404"/>
      <point x="222" y="411"/>
      <point x="222" y="418" type="curve"/>
      <point x="226" y="412"/>
      <point x="229" y="406"/>
      <point x="233" y="400" type="curve"/>
      <point x="462" y="16" type="line" smooth="yes"/>
      <point x="475" y="-6"/>
      <point x="509" y="-12"/>
      <point x="532" y="-12" type="curve" smooth="yes"/>
      <point x="538" y="-12"/>
      <point x="544" y="-11"/>
      <point x="550" y="-9" type="curve"/>
      <point x="569" y="-4"/>
      <point x="585" y="9"/>
      <point x="585" y="25" type="curve" smooth="yes"/>
      <point x="585" y="489" type="line" smooth="yes"/>
      <point x="585" y="561"/>
      <point x="593" y="607"/>
      <point x="605" y="619" type="curve"/>
      <point x="604" y="616"/>
      <point x="607" y="611"/>
      <point x="610" y="605" type="curve"/>
      <point x="611" y="604"/>
      <point x="611" y="603"/>
      <point x="612" y="602" type="curve"/>
      <point x="622" y="584"/>
      <point x="633" y="562"/>
      <point x="677" y="562" type="curve" smooth="yes"/>
      <point x="706" y="562"/>
      <point x="730" y="577"/>
      <point x="730" y="604" type="curve" smooth="yes"/>
      <point x="730" y="631"/>
      <point x="693" y="652"/>
      <point x="645" y="657" type="curve" smooth="yes"/>
      <point x="637" y="658"/>
      <point x="628" y="658"/>
      <point x="620" y="658" type="curve" smooth="yes"/>
      <point x="537" y="658"/>
      <point x="503" y="610"/>
      <point x="499" y="490" type="curve"/>
      <point x="498" y="480"/>
      <point x="498" y="470"/>
      <point x="498" y="459" type="curve" smooth="yes"/>
      <point x="498" y="204" type="line" smooth="yes"/>
      <point x="498" y="197"/>
      <point x="498" y="190"/>
      <point x="498" y="183" type="curve"/>
      <point x="494" y="190"/>
      <point x="487.943" y="197.966"/>
      <point x="482" y="208" type="curve" smooth="yes"/>
      <point x="222" y="647" type="line"/>
      <point x="59" y="647" type="line"/>
      <point x="50" y="638" type="line"/>
      <point x="50" y="623" type="line" smooth="yes"/>
      <point x="50" y="615"/>
      <point x="70" y="611"/>
      <point x="83" y="611" type="curve" smooth="yes"/>
      <point x="89" y="611" type="line" smooth="yes"/>
      <point x="93" y="611"/>
      <point x="98" y="587"/>
      <point x="103" y="550" type="curve" smooth="yes"/>
      <point x="119" y="425"/>
      <point x="135" y="149"/>
    </contour>
    <contour>
      <point x="756" y="467" type="curve" smooth="yes"/>
      <point x="639" y="467"/>
      <point x="610" y="388"/>
      <point x="610" y="331" type="curve" smooth="yes"/>
      <point x="610" y="275"/>
      <point x="659" y="199"/>
      <point x="755" y="199" type="curve" smooth="yes"/>
      <point x="848" y="199"/>
      <point x="903" y="268"/>
      <point x="903" y="333" type="curve" smooth="yes"/>
      <point x="903" y="376"/>
      <point x="878" y="467"/>
    </contour>
    <contour>
      <point x="802" y="314" type="curve" smooth="yes"/>
      <point x="802" y="248"/>
      <point x="778" y="232"/>
      <point x="766" y="232" type="curve" smooth="yes"/>
      <point x="744" y="232"/>
      <point x="712" y="276"/>
      <point x="712" y="342" type="curve" smooth="yes"/>
      <point x="712" y="422"/>
      <point x="735" y="435"/>
      <point x="750" y="435" type="curve" smooth="yes"/>
      <point x="779" y="435"/>
      <point x="802" y="384"/>
    </contour>
    <contour>
      <point x="620" y="129" type="line"/>
      <point x="620" y="112"/>
      <point x="620" y="95"/>
      <point x="620" y="78" type="curve"/>
      <point x="635" y="78"/>
      <point x="650" y="78"/>
      <point x="666" y="78" type="curve" smooth="yes"/>
      <point x="894" y="78" type="line"/>
      <point x="894" y="95"/>
      <point x="894" y="112"/>
      <point x="894" y="129" type="curve"/>
      <point x="879" y="129"/>
      <point x="864" y="129"/>
      <point x="848" y="129" type="curve" smooth="yes"/>
    </contour>
  </outline>
</glyph>
<glyph name="uni23A2" format="2">
  <advance width="356"/>
  <unicode hex="23A2"/>
  <outline>
    <contour>
      <point x="108" y="893" type="line"/>
      <point x="108" y="0" type="line"/>
      <point x="175" y="0" type="line"/>
      <point x="175" y="893" type="line"/>
    </contour>
  </outline>
</glyph>
<glyph name="uni25C9" format="2">
  <advance width="564"/>
  <unicode hex="25C9"/>
  <outline>
    <contour>
      <point x="42" y="219" type="curve" smooth="yes"/>
      <point x="42" y="64"/>
      <point x="167" y="-62"/>
      <point x="322" y="-62" type="curve" smooth="yes"/>
      <point x="477" y="-62"/>
      <point x="603" y="64"/>
      <point x="603" y="219" type="curve" smooth="yes"/>
      <point x="603" y="374"/>
      <point x="477" y="499"/>
      <point x="322" y="499" type="curve" smooth="yes"/>
      <point x="167" y="499"/>
      <point x="42" y="374"/>
    </contour>
    <contour>
      <point x="79" y="219" type="curve" smooth="yes"/>
      <point x="79" y="353"/>
      <point x="187" y="463"/>
      <point x="322" y="463" type="curve" smooth="yes"/>
      <point x="457" y="463"/>
      <point x="567" y="354"/>
      <point x="567" y="219" type="curve" smooth="yes"/>
      <point x="567" y="84"/>
      <point x="456" y="-25"/>
      <point x="322" y="-25" type="curve" smooth="yes"/>
      <point x="187" y="-25"/>
      <point x="79" y="84"/>
    </contour>
    <contour>
      <point x="220" y="217.532" type="curve" smooth="yes"/>
      <point x="220" y="161.532"/>
      <point x="266" y="115.532"/>
      <point x="322" y="115.532" type="curve" smooth="yes"/>
      <point x="379" y="115.532"/>
      <point x="425" y="161.532"/>
      <point x="425" y="217.532" type="curve" smooth="yes"/>
      <point x="425" y="274.532"/>
      <point x="379" y="320.532"/>
      <point x="322" y="320.532" type="curve" smooth="yes"/>
      <point x="266" y="320.532"/>
      <point x="220" y="274.532"/>
    </contour>
  </outline>
</glyph>
<glyph name="uni03040301" format="2">
  <anchor x="-203" y="600" name="_top"/>
  <outline>
    <component base="macron" xOffset="-399"/>
    <contour>
      <point x="-160.441" y="752" type="curve"/>
      <point x="-222.441" y="641" type="line" smooth="yes"/>
      <point x="-229.735" y="627.94"/>
      <point x="-233.441" y="620.5"/>
      <point x="-233.441" y="612" type="curve" smooth="yes"/>
      <point x="-233.441" y="607"/>
      <point x="-226.441" y="600"/>
      <point x="-220.441" y="600" type="curve" smooth="yes"/>
      <point x="-212.441" y="600"/>
      <point x="-201.384" y="602.943"/>
      <point x="-190.441" y="614" type="curve" smooth="yes"/>
      <point x="-94.4406" y="711" type="line"/>
      <point x="-102.441" y="732" type="line"/>
      <point x="-108.441" y="741"/>
      <point x="-123.441" y="753"/>
      <point x="-147.441" y="753" type="curve" smooth="yes"/>
      <point x="-151.441" y="753"/>
      <point x="-158.441" y="753"/>
    </contour>
  </outline>
</glyph>
<glyph name="uni044E.loclBGR" format="2">
  <advance width="776"/>
  <anchor x="358" y="500" name="top"/>
  <outline>
    <contour>
      <point x="19" y="-2" type="curve"/>
      <point x="61" y="-1"/>
      <point x="103" y="0"/>
      <point x="156" y="0" type="curve" smooth="yes"/>
      <point x="202" y="0"/>
      <point x="230" y="-1"/>
      <point x="273" y="-2" type="curve"/>
      <point x="279" y="4"/>
      <point x="279" y="26"/>
      <point x="273" y="32" type="curve"/>
      <point x="231" y="36"/>
      <point x="221" y="39"/>
      <point x="221" y="122" type="curve"/>
      <point x="91" y="122" type="line"/>
      <point x="91" y="39"/>
      <point x="80" y="37"/>
      <point x="19" y="32" type="curve"/>
      <point x="13" y="26"/>
      <point x="13" y="4"/>
    </contour>
    <contour>
      <point x="91" y="110" type="line"/>
      <point x="221" y="110" type="line"/>
      <point x="221" y="590" type="line"/>
      <point x="91" y="590" type="line"/>
    </contour>
    <contour>
      <point x="199" y="196" type="line"/>
      <point x="289" y="196" type="line"/>
      <point x="294" y="72"/>
      <point x="386" y="-10"/>
      <point x="517" y="-10" type="curve" smooth="yes"/>
      <point x="655" y="-10"/>
      <point x="746" y="76"/>
      <point x="746" y="216" type="curve" smooth="yes"/>
      <point x="746" y="347"/>
      <point x="667" y="444"/>
      <point x="518" y="444" type="curve" smooth="yes"/>
      <point x="394" y="444"/>
      <point x="297" y="367"/>
      <point x="291" y="240" type="curve"/>
      <point x="199" y="240" type="line"/>
    </contour>
    <contour>
      <point x="502" y="402" type="curve" smooth="yes"/>
      <point x="570" y="402"/>
      <point x="606" y="321"/>
      <point x="606" y="184" type="curve" smooth="yes"/>
      <point x="606" y="64"/>
      <point x="569" y="32"/>
      <point x="533" y="32" type="curve" smooth="yes"/>
      <point x="451" y="32"/>
      <point x="429" y="155"/>
      <point x="429" y="229" type="curve" smooth="yes"/>
      <point x="429" y="321"/>
      <point x="435" y="402"/>
    </contour>
    <contour>
      <point x="90.9367" y="576" type="curve"/>
      <point x="220.937" y="576" type="line"/>
      <point x="220.937" y="627.375"/>
      <point x="222.015" y="655.678"/>
      <point x="224.937" y="681" type="curve"/>
      <point x="224.937" y="691.674"/>
      <point x="216.378" y="698"/>
      <point x="201.937" y="698" type="curve"/>
      <point x="172.701" y="686.306"/>
      <point x="88.627" y="673.08"/>
      <point x="23.9367" y="670" type="curve"/>
      <point x="22.2367" y="664.9"/>
      <point x="23.5081" y="643.286"/>
      <point x="25.9367" y="636" type="curve"/>
      <point x="78.5414" y="630.942"/>
      <point x="90.9367" y="619.5"/>
    </contour>
  </outline>
</glyph>
